<?xml version="1.0" encoding="UTF-8" standalone="no"?>
<svg
   xmlns:dc="http://purl.org/dc/elements/1.1/"
   xmlns:cc="http://creativecommons.org/ns#"
   xmlns:rdf="http://www.w3.org/1999/02/22-rdf-syntax-ns#"
   xmlns:svg="http://www.w3.org/2000/svg"
   xmlns="http://www.w3.org/2000/svg"
   height="960.00342"
   width="980.20038"
   version="1.1"
   viewBox="0 0 980.20034 960.0034"
   id="svg2">
  <defs
     id="defs4" />
  <g
     transform="translate(583.1905,-42.62788)"
     id="layer1">
    <g
       id="g3813">
      <g
         transform="matrix(4.8963918,0,0,4.7996772,-5548.5994,-2183.1046)"
         id="g3440">
        <g
           transform="translate(2.4223e-5,5.9979e-7)"
           id="g3442">
          <rect
             x="1014.2"
             y="463.82999"
             width="199.78999"
             height="199.78999"
             ry="0"
             rx="0"
             style="fill:#fdc055;stroke:#216778;stroke-width:0.20907"
             id="rect3444" />
          <path
             d="m 1105.9,640.04 c 0,0 -13.643,-43.472 -20.465,-65.208 l -20.465,-65.208 40.922,-0.01 40.922,-0.01 -20.457,65.216 z"
             style="fill:#cdab5f;stroke:#cdab5f;stroke-width:0.16021"
             id="path3447" />
          <rect
             x="1061.2"
             y="493.97"
             width="88.057999"
             height="20.459999"
             ry="8.2194004"
             rx="11.486"
             style="fill:#ba882c;stroke:#ba882c;stroke-width:0.2335"
             id="rect3449" />
          <circle
             r="48.7029"
             cy="419.22449"
             cx="389.6232"
             transform="matrix(0.19004,0,0,0.23016,1014,432.51)"
             style="fill:#a4240d;stroke:#ba882c"
             id="path3453" />
          <circle
             r="48.7029"
             cy="419.22449"
             cx="389.6232"
             transform="matrix(0.19004,0,0,0.23016,1050.2,432.14)"
             style="fill:#a4240d;stroke:#ba882c"
             id="path3455" />
          <circle
             r="48.7029"
             cy="419.22449"
             cx="389.6232"
             transform="matrix(0.19004,0,0,0.23016,1032.7,459.67)"
             style="fill:#a4240d;stroke:#ba882c"
             id="path3459" />
          <circle
             r="48.7029"
             cy="419.22449"
             cx="389.6232"
             transform="matrix(0.19004,0,0,0.23016,1032.8,494.57)"
             style="fill:#a4240d;stroke:#ba882c"
             id="path3461" />
          <path
             style="fill:#e9a13f;stroke:#e9a13f;stroke-width:0.20914px"
             d="m 1123.5,663.25 90.679,0.3846 -0.1437,-71.892 -66.536,-95.645 1.8542,3.699 0.2182,5.9448 -0.1364,1.8826 -0.2454,0.8917 -0.7362,1.4366 -1.0226,1.3376 -0.6681,0.6275 -0.6135,0.4789 -39.949,127.89 c 6.5035,8.8076 11.881,15.054 17.299,22.968 z"
             id="path3463" />
        </g>
      </g>
    </g>
  </g>
  <metadata
     id="metadata9192">
    <rdf:RDF>
      <cc:Work>
        <dc:format>image/svg+xml</dc:format>
        <dc:type
           rdf:resource="http://purl.org/dc/dcmitype/StillImage" />
        <cc:license
           rdf:resource="http://creativecommons.org/publicdomain/zero/1.0/" />
        <dc:publisher>
          <cc:Agent
             rdf:about="http://openclipart.org/">
            <dc:title>Openclipart</dc:title>
          </cc:Agent>
        </dc:publisher>
        <dc:title></dc:title>
      </cc:Work>
      <cc:License
         rdf:about="http://creativecommons.org/publicdomain/zero/1.0/">
        <cc:permits
           rdf:resource="http://creativecommons.org/ns#Reproduction" />
        <cc:permits
           rdf:resource="http://creativecommons.org/ns#Distribution" />
        <cc:permits
           rdf:resource="http://creativecommons.org/ns#DerivativeWorks" />
      </cc:License>
    </rdf:RDF>
  </metadata>
</svg>
